<svg width="84" height="84" viewBox="0 0 84 84" fill="none" xmlns="http://www.w3.org/2000/svg">
<path d="M52.8422 33.9862C53.6232 33.2052 53.6232 31.9389 52.8422 31.1578C52.0611 30.3768 50.7948 30.3768 50.0137 31.1578L41.9999 39.1717L33.986 31.1578C33.205 30.3768 31.9386 30.3768 31.1576 31.1578C30.3765 31.9389 30.3765 33.2052 31.1576 33.9862L39.1715 42.0001L31.1576 50.014C30.3765 50.795 30.3765 52.0614 31.1576 52.8424C31.9386 53.6235 33.2049 53.6235 33.986 52.8424L41.9999 44.8285L50.0138 52.8424C50.7948 53.6235 52.0611 53.6235 52.8422 52.8424C53.6232 52.0614 53.6232 50.795 52.8422 50.014L44.8283 42.0001L52.8422 33.9862Z" fill="white"/>
<rect x="2" y="2" width="80" height="80" rx="40" stroke="white" stroke-width="4"/>
</svg>
